<?xml version="1.0" encoding="UTF-8"?><!DOCTYPE svg PUBLIC "-//W3C//DTD SVG 1.1//EN" "http://www.w3.org/Graphics/SVG/1.1/DTD/svg11.dtd"><svg xmlns="http://www.w3.org/2000/svg"><symbol id="icon-arrow" viewBox="0 0 14.8 24">
    <style>
        .st0{fill:#0d0f0f}
    </style>
    <path class="st0" d="M0 21.2L9.2 12 0 2.8 2.8 0l12 12-12 12L0 21.2z"/>
</symbol><symbol id="icon-cart" viewBox="0 0 20 20">
    <title/>
    <path d="M6 16c-1.1 0-2 .9-2 2s.9 2 2 2 2-.9 2-2-.9-2-2-2zM0 0v2h2l3.6 7.6L4.2 12c-.1.3-.2.7-.2 1 0 1.1.9 2 2 2h12v-2H6.4c-.1 0-.2-.1-.2-.2v-.1l.9-1.7h7.4c.8 0 1.4-.4 1.7-1l3.6-6.5c.2-.2.2-.3.2-.5 0-.6-.4-1-1-1H4.2l-.9-2H0zm16 16c-1.1 0-2 .9-2 2s.9 2 2 2 2-.9 2-2-.9-2-2-2z" fill-rule="evenodd"/>
</symbol></svg>